<svg id="visual" viewBox="0 0 900 600" width="900" height="600" xmlns="http://www.w3.org/2000/svg" xmlns:xlink="http://www.w3.org/1999/xlink" version="1.1"><g transform="translate(1083.028228832696 14.198307711759242)"><path d="M335.4 -583.4C370.7 -560.4 291.5 -341.5 242.6 -211.6C193.8 -81.7 175.4 -40.8 156.3 -11C137.1 18.8 117.3 37.5 156.5 150.8C195.8 264.1 294.1 472 277.9 534.3C261.7 596.6 130.8 513.3 10.3 495.4C-110.2 477.5 -220.3 525 -343.9 524.6C-467.4 524.3 -604.4 476.1 -667.8 380.7C-731.2 285.3 -721.1 142.7 -654 38.8C-586.9 -65.2 -462.7 -130.3 -398.4 -224.2C-334.1 -318 -329.5 -440.4 -273.1 -451.2C-216.7 -461.9 -108.3 -361 20.8 -397.1C150 -433.1 300 -606.3 335.4 -583.4" fill="#121212"></path></g></svg>